<mxfile host="app.diagrams.net" modified="2021-04-13T07:27:23.207Z" agent="5.0 (Macintosh; Intel Mac OS X 10_14_0) AppleWebKit/537.36 (KHTML, like Gecko) Chrome/88.0.4324.192 Safari/537.36" etag="bH2PYFHtN9Zbz9FnOKvK" version="14.5.4" type="github">
  <diagram id="JmNzO3C2vtaQoQxHl0WQ" name="Page-1">
    <mxGraphModel dx="946" dy="557" grid="1" gridSize="10" guides="1" tooltips="1" connect="1" arrows="1" fold="1" page="1" pageScale="1" pageWidth="827" pageHeight="1169" math="0" shadow="0">
      <root>
        <mxCell id="0" />
        <mxCell id="1" parent="0" />
        <mxCell id="zf9nPzENGnupRXUo6p6O-8" style="edgeStyle=orthogonalEdgeStyle;rounded=0;orthogonalLoop=1;jettySize=auto;html=1;exitX=1;exitY=0.5;exitDx=0;exitDy=0;entryX=0;entryY=0.5;entryDx=0;entryDy=0;entryPerimeter=0;" edge="1" parent="1" source="zf9nPzENGnupRXUo6p6O-1" target="zf9nPzENGnupRXUo6p6O-3">
          <mxGeometry relative="1" as="geometry" />
        </mxCell>
        <mxCell id="zf9nPzENGnupRXUo6p6O-1" value="学生党&lt;br&gt;美妆" style="rounded=1;whiteSpace=wrap;html=1;" vertex="1" parent="1">
          <mxGeometry x="50" y="90" width="80" height="40" as="geometry" />
        </mxCell>
        <mxCell id="zf9nPzENGnupRXUo6p6O-2" value="关键词" style="text;html=1;align=center;verticalAlign=middle;resizable=0;points=[];autosize=1;" vertex="1" parent="1">
          <mxGeometry x="65" y="130" width="50" height="20" as="geometry" />
        </mxCell>
        <mxCell id="zf9nPzENGnupRXUo6p6O-9" style="edgeStyle=orthogonalEdgeStyle;rounded=0;orthogonalLoop=1;jettySize=auto;html=1;exitX=1;exitY=0.5;exitDx=0;exitDy=0;exitPerimeter=0;entryX=0.008;entryY=0.643;entryDx=0;entryDy=0;entryPerimeter=0;" edge="1" parent="1" source="zf9nPzENGnupRXUo6p6O-3" target="zf9nPzENGnupRXUo6p6O-5">
          <mxGeometry relative="1" as="geometry" />
        </mxCell>
        <mxCell id="zf9nPzENGnupRXUo6p6O-3" value="检索模型" style="shape=cylinder3;whiteSpace=wrap;html=1;boundedLbl=1;backgroundOutline=1;size=10;" vertex="1" parent="1">
          <mxGeometry x="180" y="80" width="60" height="60" as="geometry" />
        </mxCell>
        <mxCell id="zf9nPzENGnupRXUo6p6O-5" value="学生党宝藏美妆&lt;br&gt;贫民窟女孩化妆品推荐&lt;br&gt;学生党最爱的美妆" style="rounded=1;whiteSpace=wrap;html=1;" vertex="1" parent="1">
          <mxGeometry x="284" y="65" width="130" height="70" as="geometry" />
        </mxCell>
        <mxCell id="zf9nPzENGnupRXUo6p6O-6" value="相关话题" style="text;html=1;align=center;verticalAlign=middle;resizable=0;points=[];autosize=1;" vertex="1" parent="1">
          <mxGeometry x="314" y="135" width="60" height="20" as="geometry" />
        </mxCell>
      </root>
    </mxGraphModel>
  </diagram>
</mxfile>
